<svg xmlns="http://www.w3.org/2000/svg" viewBox="0 0 296.06 237.12"><title>Asset 1</title><g id="Layer_2" data-name="Layer 2"><g id="Layer_1-2" data-name="Layer 1"><path d="M.7,60.52c-3,12.88,4.46,26,10.7,36.87s14.58,20.85,26.25,26c23.42,10.29,45.9-7.22,53.07-29.35,4.14-12.78,4.4-26.8,3.24-40.08-1-11.87-4.65-22.76-12.16-32.12A58.88,58.88,0,0,0,56.16,3.39C46.5-.14,33.08-2.17,23.93,3.75c-10.88,7-9.45,23.35-8.77,34.51C16,52.53,19.25,66.8,28.06,78.35c1.5,2,4.91,0,3.38-2-6.75-8.86-10.17-19.32-11.62-30.27-1.3-9.8-2.82-22.72.82-32.16C25.1,2.42,39.78,3,49.75,5.52A54.17,54.17,0,0,1,74.32,19.36c16.37,16,18.43,40.29,15.3,61.93C86.71,101.43,72.28,125,48.83,122.46,35.26,121,24.6,110.82,17.49,99.86c-6.77-10.45-16-25.41-13-38.3.58-2.45-3.19-3.5-3.77-1Z"/><path d="M143.89,78.78a12.91,12.91,0,0,0-14.84-14.73c-10.41,1.77-15.16,12.65-13.79,22.22,1.19,8.25,7.1,19.58,17.13,17.93,4.1-.68,6.5-3.33,6.37-7.44-.25-8.24,2.66-14,7.09-20.79l-3.58-.46c2.51,13.62,9.4,26,15.3,38.42l19.69,41.35,1.69-2.94-36.45-.27c-2.53,0-2.53,3.89,0,3.91l36.45.27a2,2,0,0,0,1.69-2.94L161.8,113.75c-6-12.68-13.19-25.34-15.75-39.29-.32-1.76-2.73-1.76-3.58-.46-3.47,5.31-7,10.94-7.73,17.4-.38,3.4,1.24,7.27-2.73,8.68-4.55,1.62-8.53-3-10.36-6.54-3.4-6.56-4.36-15.87,1.06-21.67,2.59-2.76,6.54-4.76,10.41-3.92a8.91,8.91,0,0,1,7,9.79c-.39,2.47,3.38,3.53,3.78,1Z"/><path d="M202.2,70.53c-3,12.89,4.46,26.06,10.71,36.87s14.58,20.85,26.25,26c23.42,10.28,45.9-7.23,53.07-29.36,4.14-12.77,4.39-26.8,3.24-40.08-1-11.86-4.66-22.75-12.16-32.12A58.91,58.91,0,0,0,257.66,13.4c-9.65-3.53-23.08-5.55-32.23.36-10.87,7-9.44,23.35-8.77,34.51.86,14.27,4.1,28.54,12.9,40.1,1.51,2,4.91,0,3.39-2-6.75-8.85-10.18-19.31-11.63-30.27-1.3-9.8-2.81-22.72.83-32.15,4.46-11.54,19.14-10.92,29.11-8.44a54.17,54.17,0,0,1,24.57,13.84c16.36,16,18.42,40.29,15.3,61.94-2.91,20.13-17.34,43.74-40.79,41.16-13.57-1.49-24.23-11.64-31.34-22.6-6.78-10.45-16.06-25.41-13-38.3.58-2.45-3.2-3.5-3.78-1Z"/><path d="M115.23,210.14c3.51,4.83,5.64,10.53,9.66,15a34.46,34.46,0,0,0,12.68,8.68c9.72,4,20.55,4.11,30.66,1.63,24.31-5.94,41.89-25.07,55.62-44.89,1.44-2.08-1.95-4-3.38-2-12.54,18.1-28.29,35.61-50,42.21-9.76,3-20.31,3.46-30,0a31.43,31.43,0,0,1-12.3-7.86c-4-4.32-6.07-10-9.52-14.74-1.47-2-4.87-.07-3.38,2Z"/></g></g></svg>