<?xml version="1.0" encoding="utf-8"?>
<!-- Generator: Adobe Illustrator 23.0.0, SVG Export Plug-In . SVG Version: 6.00 Build 0)  -->
<svg version="1.1" id="Layer_1" xmlns="http://www.w3.org/2000/svg" xmlns:xlink="http://www.w3.org/1999/xlink" x="0px" y="0px"
	 viewBox="0 0 560 288" style="enable-background:new 0 0 560 288;" xml:space="preserve">
<g>
	<g>
		<g>
			<path d="M108.8,85.8c-3,12.9,4.5,26.1,10.7,36.9c6.2,10.8,14.6,20.8,26.2,26c23.4,10.3,45.9-7.2,53.1-29.4
				c4.1-12.8,4.4-26.8,3.2-40.1c-1-11.9-4.7-22.8-12.2-32.1c-6.7-8.3-15.6-14.8-25.6-18.4c-9.7-3.5-23.1-5.6-32.2,0.4
				c-10.9,7-9.4,23.4-8.8,34.5c0.9,14.3,4.1,28.5,12.9,40.1c1.5,2,4.9,0,3.4-2c-6.7-8.9-10.2-19.3-11.6-30.3
				c-1.3-9.8-2.8-22.7,0.8-32.2c4.5-11.5,19.1-10.9,29.1-8.4c9.2,2.3,17.8,7.2,24.6,13.8c16.4,16,18.4,40.3,15.3,61.9
				c-2.9,20.1-17.3,43.7-40.8,41.2c-13.6-1.5-24.2-11.6-31.3-22.6c-6.8-10.5-16.1-25.4-13-38.3C113.1,84.4,109.4,83.4,108.8,85.8
				L108.8,85.8z"/>
		</g>
	</g>
	<g>
		<g>
			<path d="M252,104.1c1.4-8.6-6.1-16.2-14.8-14.7c-10.4,1.8-15.2,12.6-13.8,22.2c1.2,8.2,7.1,19.6,17.1,17.9
				c4.1-0.7,6.5-3.3,6.4-7.4c-0.3-8.2,2.7-14,7.1-20.8c-1.2-0.2-2.4-0.3-3.6-0.5c2.5,13.6,9.4,26,15.3,38.4
				c6.6,13.8,13.1,27.6,19.7,41.4c0.6-1,1.1-2,1.7-2.9c-12.2-0.1-24.3-0.2-36.5-0.3c-2.5,0-2.5,3.9,0,3.9
				c12.2,0.1,24.3,0.2,36.5,0.3c1.6,0,2.3-1.6,1.7-2.9c-6.3-13.2-12.6-26.4-18.8-39.6c-6-12.7-13.2-25.3-15.8-39.3
				c-0.3-1.8-2.7-1.8-3.6-0.5c-3.5,5.3-7,10.9-7.7,17.4c-0.4,3.4,1.2,7.3-2.7,8.7c-4.6,1.6-8.5-3-10.4-6.5
				c-3.4-6.6-4.4-15.9,1.1-21.7c2.6-2.8,6.5-4.8,10.4-3.9c4.4,0.9,7.7,5.3,7,9.8C247.8,105.5,251.6,106.6,252,104.1L252,104.1z"/>
		</g>
	</g>
	<g>
		<g>
			<path d="M310.3,95.9c-3,12.9,4.5,26.1,10.7,36.9c6.2,10.8,14.6,20.8,26.2,26c23.4,10.3,45.9-7.2,53.1-29.4
				c4.1-12.8,4.4-26.8,3.2-40.1c-1-11.9-4.7-22.8-12.2-32.1c-6.7-8.3-15.6-14.8-25.6-18.4c-9.7-3.5-23.1-5.6-32.2,0.4
				c-10.9,7-9.4,23.4-8.8,34.5c0.9,14.3,4.1,28.5,12.9,40.1c1.5,2,4.9,0,3.4-2c-6.7-8.9-10.2-19.3-11.6-30.3
				c-1.3-9.8-2.8-22.7,0.8-32.2c4.5-11.5,19.1-10.9,29.1-8.4c9.2,2.3,17.8,7.2,24.6,13.8c16.4,16,18.4,40.3,15.3,61.9
				c-2.9,20.1-17.3,43.7-40.8,41.2c-13.6-1.5-24.2-11.6-31.3-22.6c-6.8-10.5-16.1-25.4-13-38.3C314.6,94.5,310.9,93.4,310.3,95.9
				L310.3,95.9z"/>
		</g>
	</g>
	<g>
		<g>
			<path d="M223.3,235.5c3.5,4.8,5.6,10.5,9.7,15c3.5,3.9,7.9,6.7,12.7,8.7c9.7,4,20.5,4.1,30.7,1.6c24.3-5.9,41.9-25.1,55.6-44.9
				c1.4-2.1-2-4-3.4-2c-12.5,18.1-28.3,35.6-50,42.2c-9.8,3-20.3,3.5-30,0c-4.6-1.7-8.9-4.3-12.3-7.9c-4-4.3-6.1-10-9.5-14.7
				C225.2,231.5,221.8,233.4,223.3,235.5L223.3,235.5z"/>
		</g>
	</g>
</g>
</svg>
